<svg width="18" height="18" viewBox="0 0 18 18" fill="none" xmlns="http://www.w3.org/2000/svg">
<path d="M16.0425 9.49966C16.0424 9.21844 15.9319 8.94837 15.7339 8.74869L8.75146 1.76627H1.26611V9.25064L8.24951 16.2262C8.34848 16.3252 8.4659 16.404 8.59521 16.4577C8.7247 16.5114 8.86422 16.5387 9.00439 16.5387C9.14444 16.5387 9.28323 16.5113 9.4126 16.4577C9.54193 16.4041 9.65931 16.3252 9.7583 16.2262L10.6079 17.0739C10.3974 17.2846 10.1468 17.452 9.87158 17.5661C9.59664 17.68 9.302 17.7389 9.00439 17.7389C8.7066 17.7389 8.41134 17.6801 8.13623 17.5661C7.86136 17.4521 7.61125 17.2853 7.40088 17.0749L0.242676 9.92447C0.130003 9.81193 0.0668945 9.65892 0.0668945 9.49966V1.16666C0.0668945 0.835286 0.335133 0.567047 0.666504 0.567047H8.99951C9.15864 0.567047 9.31179 0.630307 9.42432 0.742828L16.5835 7.90201L16.2993 8.18326L16.2427 8.2399L16.5835 7.90201C17.0056 8.32662 17.2426 8.90096 17.2427 9.49966C17.2427 10.0985 17.0057 10.6736 16.5835 11.0983L16.1577 10.6745L16.5825 11.0993L10.6079 17.0739L9.75928 16.2253L15.7339 10.2506C15.9317 10.0509 16.0425 9.78085 16.0425 9.49966Z" fill="#B3B3B3"/>
<path d="M4.8418 4.58331C5.2558 4.58356 5.5918 4.91925 5.5918 5.33331C5.5918 5.74737 5.2558 6.08307 4.8418 6.08331H4.83301C4.41879 6.08331 4.08301 5.74753 4.08301 5.33331C4.08301 4.9191 4.41879 4.58331 4.83301 4.58331H4.8418Z" fill="#B3B3B3"/>
</svg>
