<svg xmlns="http://www.w3.org/2000/svg" width="20" height="20" viewBox="0 0 20 20" fill="none">
  <path d="M9.99998 2.79102C13.4137 2.79102 15.7907 4.56337 17.2842 6.27832C18.0308 7.13573 18.5681 7.99008 18.9189 8.62988C19.0947 8.95051 19.2252 9.21981 19.3125 9.41113C19.3562 9.50686 19.3894 9.58366 19.4121 9.6377C19.4234 9.66455 19.4323 9.68578 19.4385 9.70117C19.4415 9.70867 19.4435 9.7151 19.4453 9.71973L19.4492 9.72754V9.72852C19.4493 9.72885 19.4494 9.72929 18.75 10C19.4419 10.2679 19.4493 10.2711 19.4492 10.2715V10.2725L19.4453 10.2803C19.4435 10.2849 19.4415 10.2912 19.4385 10.2988C19.4323 10.3142 19.4234 10.3354 19.4121 10.3623C19.3894 10.4163 19.3562 10.4932 19.3125 10.5889C19.2252 10.7802 19.0948 11.0495 18.9189 11.3701C18.5681 12.0098 18.0309 12.8644 17.2842 13.7217C15.7906 15.4362 13.4136 17.208 9.99998 17.208C6.5864 17.208 4.20933 15.4362 2.7158 13.7217C1.96907 12.8644 1.43191 12.0098 1.08104 11.3701C0.90519 11.0495 0.774767 10.7802 0.687484 10.5889C0.643814 10.4932 0.610534 10.4163 0.587874 10.3623C0.576609 10.3354 0.567697 10.3142 0.561507 10.2988C0.558454 10.2912 0.556505 10.2849 0.554671 10.2803L0.550765 10.2725C0.550634 10.2721 0.550568 10.2708 1.24998 10C0.55057 9.72929 0.550634 9.72885 0.550765 9.72852V9.72754L0.554671 9.71973C0.556498 9.7151 0.558489 9.70867 0.561507 9.70117C0.567705 9.68578 0.576616 9.66455 0.587874 9.6377C0.610533 9.58366 0.643815 9.50686 0.687484 9.41113C0.774764 9.21981 0.905229 8.95051 1.08104 8.62988C1.43189 7.99008 1.96913 7.13573 2.7158 6.27832C4.2093 4.56337 6.58623 2.79102 9.99998 2.79102ZM9.99998 4.29102C7.16383 4.29102 5.16567 5.74817 3.84666 7.2627C3.18731 8.01981 2.70869 8.78037 2.39549 9.35156C2.24993 9.61704 2.14126 9.8399 2.06737 10C2.14127 10.1601 2.2499 10.383 2.39549 10.6484C2.70868 11.2195 3.18733 11.9794 3.84666 12.7363C5.16564 14.2505 7.16367 15.708 9.99998 15.708C12.8363 15.708 14.8343 14.2505 16.1533 12.7363C16.8126 11.9794 17.2913 11.2195 17.6045 10.6484C17.75 10.3832 17.8577 10.1601 17.9316 10C17.8577 9.83993 17.7499 9.61683 17.6045 9.35156C17.2913 8.78037 16.8127 8.01981 16.1533 7.2627C14.8343 5.74817 12.8361 4.29102 9.99998 4.29102ZM1.24998 10L0.550765 10.2705C0.483419 10.0964 0.483389 9.90361 0.550765 9.72949L1.24998 10ZM19.4492 9.72949C19.5166 9.90361 19.5166 10.0964 19.4492 10.2705L18.75 10L19.4492 9.72949Z" fill="#1A1A1A"/>
  <path d="M12.375 10C12.375 9.37011 12.1251 8.76571 11.6797 8.32031C11.2343 7.87491 10.6299 7.625 10 7.625C9.37011 7.625 8.76571 7.87491 8.32031 8.32031C7.87491 8.76571 7.625 9.37011 7.625 10C7.625 10.6299 7.87491 11.2343 8.32031 11.6797C8.76571 12.1251 9.37011 12.375 10 12.375C10.6299 12.375 11.2343 12.1251 11.6797 11.6797C12.1251 11.2343 12.375 10.6299 12.375 10ZM13.875 10C13.875 11.0277 13.4669 12.0135 12.7402 12.7402C12.0135 13.4669 11.0277 13.875 10 13.875C8.97229 13.875 7.98647 13.4669 7.25977 12.7402C6.53306 12.0135 6.125 11.0277 6.125 10C6.125 8.97229 6.53306 7.98647 7.25977 7.25977C7.98647 6.53306 8.97229 6.125 10 6.125C11.0277 6.125 12.0135 6.53306 12.7402 7.25977C13.4669 7.98647 13.875 8.97229 13.875 10Z" fill="#1A1A1A"/>
</svg>