<svg xmlns="http://www.w3.org/2000/svg" width="12" height="12" viewBox="0 0 12 12" fill="none">
  <path d="M5.25098 10.6663V6.75031H1.33398C0.91988 6.75031 0.584161 6.41437 0.583984 6.00031C0.583984 5.58609 0.919771 5.25031 1.33398 5.25031H5.25098V1.33331C5.25098 0.919099 5.58676 0.583313 6.00098 0.583313C6.38901 0.583478 6.70847 0.878285 6.74707 1.25616L6.75098 1.33331V5.25031H10.667C11.0812 5.25031 11.417 5.58609 11.417 6.00031C11.4168 6.41437 11.0811 6.75031 10.667 6.75031H6.75098V10.6663C6.75098 11.0804 6.41504 11.4161 6.00098 11.4163C5.58676 11.4163 5.25098 11.0805 5.25098 10.6663Z" fill="#1A1A1A"/>
</svg>